<svg width="29" height="30" viewBox="0 0 29 30" fill="none" xmlns="http://www.w3.org/2000/svg">
<path d="M8.8737 20.2435C8.8737 20.2435 7.43754 15.7738 4.9569 18.2002C2.47626 20.6266 3.6513 25.0962 7.5681 25.0962" stroke="white" stroke-width="1.3" stroke-linejoin="round"/>
<path d="M8.8737 9.81951C8.8737 9.81951 7.43754 14.2891 4.9569 11.8628C2.47626 9.4364 3.6513 4.9668 7.5681 4.9668" stroke="white" stroke-width="1.3" stroke-linejoin="round"/>
<path d="M3.64967 10.3301C3.64967 10.3301 0.777344 11.3517 0.777344 15.4382C0.777344 18.2477 3.91079 19.5247 3.91079 19.5247" stroke="white" stroke-width="1.3" stroke-linejoin="round"/>
<path d="M11.7618 25.3979C11.0912 24.6157 10.1717 24.0761 9.15056 23.8655C5.75599 23.8655 7.32271 29.229 11.5006 29.229C15.6786 29.229 15.4174 23.3546 15.4174 23.3546V6.75325C15.4174 6.75325 15.6786 0.878906 11.5006 0.878906C7.32271 0.878906 5.75599 6.24243 9.15056 6.24243C10.1717 6.03179 11.0912 5.4922 11.7618 4.71" stroke="white" stroke-width="1.3" stroke-linejoin="round"/>
<path d="M22.988 12.0664H17.7656V17.1745H22.988V12.0664Z" fill="#231F20"/>
<path d="M15.4219 6.16119H22.4721V4.25586" stroke="white" stroke-width="1.3" stroke-linejoin="round"/>
<path d="M15.4219 22.6992H22.4669V26.0476" stroke="white" stroke-width="1.3" stroke-linejoin="round"/>
<path d="M15.1562 19.8145H25.0788" stroke="white" stroke-width="1.3" stroke-linejoin="round"/>
<path d="M15.1562 9.42188H25.0788" stroke="white" stroke-width="1.3" stroke-linejoin="round"/>
<path d="M22.4652 3.82659C23.3304 3.82659 24.0319 3.1405 24.0319 2.29416C24.0319 1.44781 23.3304 0.761719 22.4652 0.761719C21.5999 0.761719 20.8984 1.44781 20.8984 2.29416C20.8984 3.1405 21.5999 3.82659 22.4652 3.82659Z" stroke="white" stroke-width="1.3" stroke-linejoin="round"/>
<path d="M22.4652 29.1117C23.3304 29.1117 24.0319 28.4257 24.0319 27.5793C24.0319 26.733 23.3304 26.0469 22.4652 26.0469C21.5999 26.0469 20.8984 26.733 20.8984 27.5793C20.8984 28.4257 21.5999 29.1117 22.4652 29.1117Z" stroke="white" stroke-width="1.3" stroke-linejoin="round"/>
<path d="M26.6448 10.9789C27.5101 10.9789 28.2116 10.2928 28.2116 9.4465C28.2116 8.60016 27.5101 7.91406 26.6448 7.91406C25.7796 7.91406 25.0781 8.60016 25.0781 9.4465C25.0781 10.2928 25.7796 10.9789 26.6448 10.9789Z" stroke="white" stroke-width="1.3" stroke-linejoin="round"/>
<path d="M26.6448 21.4496C27.5101 21.4496 28.2116 20.7635 28.2116 19.9172C28.2116 19.0709 27.5101 18.3848 26.6448 18.3848C25.7796 18.3848 25.0781 19.0709 25.0781 19.9172C25.0781 20.7635 25.7796 21.4496 26.6448 21.4496Z" stroke="white" stroke-width="1.3" stroke-linejoin="round"/>
</svg>
